<svg xmlns="http://www.w3.org/2000/svg" width="640" height="480" viewBox="0 0 320 240">
  <rect width="320" height="240" fill="#000000"/>
  <rect x="0" y="0" width="320" height="11" fill="#0D0F12" stroke="#1A1E24"/>
  <text x="4" y="8" fill="#AAAAAA" font-size="7" font-family="monospace">BRL · STATUS</text>
  <text x="196" y="8" fill="#0023FF" font-size="7" font-family="monospace">DISARMED | 24.7V | ELRS</text>

  <rect x="4" y="16" width="312" height="42" fill="#0D0F12" stroke="#0023FF"/>
  <text x="10" y="25" fill="#555555" font-size="7" font-family="monospace">ROBOT STATE</text>
  <text x="10" y="45" fill="#0023FF" font-size="18" font-family="monospace" font-weight="700">DISARMED</text>

  <rect x="4" y="62" width="154" height="33" fill="#0D0F12" stroke="#1A1E24"/>
  <text x="10" y="71" fill="#555555" font-size="7" font-family="monospace">BATTERY</text>
  <text x="10" y="83" fill="#00FF66" font-size="11" font-family="monospace" font-weight="700">24.7V</text>
  <rect x="10" y="88" width="140" height="4" fill="#1A1E24"/>
  <rect x="10" y="88" width="112" height="4" fill="#00FF66"/>

  <rect x="162" y="62" width="154" height="33" fill="#0D0F12" stroke="#1A1E24"/>
  <text x="168" y="71" fill="#555555" font-size="7" font-family="monospace">ELRS LINK</text>
  <text x="168" y="83" fill="#00FF66" font-size="11" font-family="monospace" font-weight="700">150fps</text>
  <text x="168" y="91" fill="#AAAAAA" font-size="7" font-family="monospace">AGE 8ms</text>

  <rect x="4" y="99" width="312" height="70" fill="#0D0F12" stroke="#1A1E24"/>
  <text x="10" y="108" fill="#555555" font-size="7" font-family="monospace">RC CHANNELS  ARM:LOW</text>

  <rect x="4" y="173" width="312" height="42" fill="#0D0F12" stroke="#1A1E24"/>
  <text x="10" y="182" fill="#555555" font-size="7" font-family="monospace">DRIVE OUTPUTS  GATE CLOSED</text>

  <line x1="4" y1="220" x2="316" y2="220" stroke="#1A1E24"/>
  <text x="6" y="228" fill="#555555" font-size="7" font-family="monospace">▼ DIAG</text>
  <text x="188" y="228" fill="#555555" font-size="7" font-family="monospace">LOG · FREEZE · E-STOP</text>
</svg>
